<svg width="390" height="754" viewBox="0 0 390 754" fill="none" xmlns="http://www.w3.org/2000/svg">
<g clip-path="url(#clip0_27455_289928)">
<path d="M-137.923 279.527L41.8568 213.585L339.187 325.785L94.2104 400.585L-146.813 349.406L-137.923 279.527Z" fill="#CBD6FF"/>
<path d="M-508.662 362.652L285.204 267.955L708.892 350.836L720.202 620.578L-501.066 605.386L-508.662 362.652Z" fill="url(#paint0_linear_27455_289928)"/>
<path d="M255.664 517.779C209.919 453.635 388.51 459.711 412.817 404.851C437.293 349.823 301.747 345.096 272.376 317.919C249.419 296.482 286.724 268.292 286.724 268.292L-183.891 320.283C-183.384 308.804 -182.709 297.495 -182.203 286.016C-182.203 284.497 -182.034 282.64 -180.852 281.459C-179.333 279.939 -176.97 279.939 -174.775 280.108C-166.842 280.446 -157.895 281.29 -152.156 276.395C-147.261 272.175 -146.923 265.423 -146.755 259.346C-146.586 248.036 -146.248 236.727 -146.079 225.417C-145.911 219.509 -147.43 211.913 -153.844 210.9C-157.727 210.394 -161.271 212.926 -162.959 215.964C-164.647 219.171 -164.816 222.716 -164.985 226.092C-165.323 233.688 -165.491 241.284 -165.829 248.88C-165.998 251.75 -165.998 254.788 -167.686 257.32C-169.374 259.852 -173.087 261.371 -175.788 260.021C-177.307 239.09 -178.32 218.327 -178.658 197.396C-178.827 189.631 -179.164 181.191 -184.397 174.946C-189.63 168.7 -201.952 167.181 -206.341 173.933C-208.198 176.803 -208.198 180.516 -208.029 183.892C-206.51 220.859 -205.666 257.827 -205.497 294.794C-206.003 294.794 -206.51 294.963 -207.016 294.963C-210.899 294.963 -215.119 294.794 -217.651 292.262C-220.52 289.392 -219.507 284.835 -218.495 281.121C-216.469 272.512 -215.456 263.566 -215.625 254.619C-215.625 253.607 -215.625 252.425 -216.3 251.412C-216.807 250.568 -217.82 250.062 -218.832 249.724C-223.728 248.036 -229.298 250.062 -232.674 253.607C-236.05 257.151 -237.738 261.709 -238.919 266.267C-239.932 270.149 -240.776 274.031 -241.283 277.914C-242.127 283.484 -242.464 289.223 -241.114 294.794C-239.763 300.364 -236.556 305.597 -231.323 308.804C-225.753 312.18 -218.495 312.855 -211.743 313.024C-209.717 313.024 -207.523 313.024 -205.328 312.855C-205.328 315.556 -205.328 318.426 -205.328 321.127C-205.328 321.633 -205.328 322.308 -205.328 322.815L-509 356.406V877.085H393.186L539.416 607.918C539.585 607.749 301.409 581.923 255.664 517.779Z" fill="#8099FF"/>
<path d="M255.664 517.779C209.919 453.635 388.51 459.711 412.817 404.851C437.293 349.823 301.747 345.096 272.376 317.919C249.419 296.482 286.724 268.292 286.724 268.292L-183.891 320.283C-183.384 308.804 -182.709 297.495 -182.203 286.016C-182.203 284.497 -182.034 282.64 -180.852 281.459C-179.333 279.939 -176.97 279.939 -174.775 280.108C-166.842 280.446 -157.895 281.29 -152.156 276.395C-147.261 272.175 -146.923 265.423 -146.755 259.346C-146.586 248.036 -146.248 236.727 -146.079 225.417C-145.911 219.509 -147.43 211.913 -153.844 210.9C-157.727 210.394 -161.271 212.926 -162.959 215.964C-164.647 219.171 -164.816 222.716 -164.985 226.092C-165.323 233.688 -165.491 241.284 -165.829 248.88C-165.998 251.75 -165.998 254.788 -167.686 257.32C-169.374 259.852 -173.087 261.371 -175.788 260.021C-177.307 239.09 -178.32 218.327 -178.658 197.396C-178.827 189.631 -179.164 181.191 -184.397 174.946C-189.63 168.7 -201.952 167.181 -206.341 173.933C-208.198 176.803 -208.198 180.516 -208.029 183.892C-206.51 220.859 -205.666 257.827 -205.497 294.794C-206.003 294.794 -206.51 294.963 -207.016 294.963C-210.899 294.963 -215.119 294.794 -217.651 292.262C-220.52 289.392 -219.507 284.835 -218.495 281.121C-216.469 272.512 -215.456 263.566 -215.625 254.619C-215.625 253.607 -215.625 252.425 -216.3 251.412C-216.807 250.568 -217.82 250.062 -218.832 249.724C-223.728 248.036 -229.298 250.062 -232.674 253.607C-236.05 257.151 -237.738 261.709 -238.919 266.267C-239.932 270.149 -240.776 274.031 -241.283 277.914C-242.127 283.484 -242.464 289.223 -241.114 294.794C-239.763 300.364 -236.556 305.597 -231.323 308.804C-225.753 312.18 -218.495 312.855 -211.743 313.024C-209.717 313.024 -207.523 313.024 -205.328 312.855C-205.328 315.556 -205.328 318.426 -205.328 321.127C-205.328 321.633 -205.328 322.308 -205.328 322.815L-509 356.406V877.085H393.186L539.416 607.918C539.585 607.749 301.409 581.923 255.664 517.779Z" fill="url(#paint1_linear_27455_289928)"/>
<path opacity="0.4" d="M210.403 308C231.244 319.554 242.224 332.885 258.226 347.614C260.087 349.391 261.948 351.55 260.459 353.454C259.715 354.343 258.226 354.978 256.924 355.359C238.502 361.072 222.22 350.788 207.706 341.138C195.797 333.393 187.888 325.521 175.979 317.776C173.374 316.126 170.769 313.587 172.63 311.555C173.932 310.158 176.91 310.031 179.143 310.031C194.773 310.031 196.262 308.635 211.892 308.635" fill="url(#paint2_linear_27455_289928)"/>
<path opacity="0.4" d="M119.912 307.244C132.847 318.643 144.475 331.795 154.405 346.325C155.581 347.953 156.757 350.208 155.842 352.087C155.45 352.964 154.536 353.59 153.621 353.966C142.254 359.602 129.711 349.456 120.696 339.937C113.379 332.296 106.063 324.655 98.6148 317.014C97.0469 315.386 95.3484 312.881 96.6549 310.877C97.5695 309.499 99.2681 309.374 100.706 309.374C110.374 309.374 110.766 307.996 120.435 307.996" fill="url(#paint3_linear_27455_289928)"/>
<path opacity="0.4" d="M317.432 307.018C331.046 317.597 343.464 330.006 354.272 343.895C355.546 345.448 356.859 347.626 356.062 349.557C355.725 350.457 354.851 351.138 353.961 351.57C342.964 357.898 329.819 348.545 320.233 339.6C312.459 332.426 304.684 325.251 296.779 318.085C295.114 316.556 293.264 314.161 294.444 312.08C295.272 310.648 296.96 310.418 298.394 310.33C308.044 309.733 308.35 308.333 318 307.736" fill="url(#paint4_linear_27455_289928)"/>
<path d="M136.081 270.87V268.37H133.581H120.269V195.176V192.676H117.769H102.348H100.987L100.248 193.819L49.2118 272.801L48.8115 273.42V274.158V282.69V285.19H51.3115H100.709V309.147V311.647H103.209H117.769H120.269V309.147V285.19H133.581H136.081V282.69V270.87ZM100.709 268.37H72.3158L100.709 223.968V268.37ZM163.237 300.122L163.242 300.129C169.664 308.959 179.511 313.213 192.269 313.213C205.194 313.213 215.11 308.845 221.477 299.782C227.706 290.916 230.62 277.696 230.62 260.537V241.751V241.739V241.727C230.462 225.141 227.463 212.401 221.209 203.947C214.827 195.266 204.946 191.11 192.113 191.11C179.152 191.11 169.209 195.414 162.835 204.372C156.599 213.137 153.683 226.206 153.683 243.16V262.494V262.511L153.684 262.527C153.895 278.776 156.958 291.433 163.237 300.122ZM206.339 215.266L206.345 215.275C209.413 220.25 211.139 228.592 211.139 240.733V264.434C210.983 276.186 209.165 284.326 206.046 289.26L206.042 289.267L206.037 289.274C203.1 293.992 198.655 296.393 192.269 296.393C185.828 296.393 181.238 293.875 178.123 288.826C174.933 283.517 173.165 274.97 173.165 262.807V239.649C173.269 228.219 175.007 220.185 178.046 215.182C180.916 210.457 185.436 208.008 192.113 208.008C198.839 208.008 203.415 210.481 206.339 215.266ZM334.118 270.87V268.37H331.618H318.306V195.176V192.676H315.806H300.386H299.025L298.286 193.819L247.249 272.801L246.849 273.42V274.158V282.69V285.19H249.349H298.747V309.147V311.647H301.247H315.806H318.306V309.147V285.19H331.618H334.118V282.69V270.87ZM298.747 268.37H270.353L298.747 223.968V268.37Z" fill="#4B6EFA" stroke="#4B6EFA" stroke-width="5"/>
<path d="M65.3534 333.089C64.5336 332.971 63.7138 333.502 63.3039 334.209C62.9526 334.916 62.894 335.683 62.894 336.449C62.8354 338.158 62.7769 339.809 62.7183 341.518C62.7183 342.166 62.6598 342.815 62.3084 343.404C61.9571 343.935 61.1373 344.288 60.4931 343.994C60.1418 339.396 59.9661 334.739 59.849 330.142C59.7904 328.432 59.7319 326.546 58.6193 325.19C57.4481 323.835 54.7544 323.481 53.8175 324.955C53.4076 325.603 53.4076 326.369 53.4662 327.135C53.8175 335.329 53.9932 343.463 54.0517 351.657C53.9346 351.657 53.8175 351.657 53.7004 351.657C52.8806 351.657 51.8851 351.598 51.3581 351.067C50.7139 350.419 50.9482 349.417 51.1824 348.591C51.6509 346.646 51.8851 344.701 51.8265 342.756C51.8265 342.52 51.8265 342.284 51.6509 342.049C51.5337 341.872 51.2995 341.754 51.1238 341.695C50.0698 341.341 48.8401 341.754 48.0788 342.579C47.3176 343.404 46.9662 344.347 46.6734 345.349C46.4392 346.175 46.2635 347.059 46.1464 347.943C45.9707 349.181 45.9122 350.419 46.205 351.657C46.4977 352.894 47.2004 354.014 48.3716 354.722C49.6013 355.488 51.1824 355.606 52.6463 355.665C53.1148 355.665 53.5833 355.665 54.0517 355.606C54.0517 356.195 54.0517 356.844 54.0517 357.433C54.0517 359.614 54.0517 361.795 53.4076 363.917C52.9391 363.976 52.5878 364.389 52.5878 364.801C54.286 365.686 56.3355 366.098 58.2679 365.98C58.5607 360.557 58.7949 355.134 59.0877 349.711C59.0877 349.358 59.1463 349.004 59.3805 348.709C59.7319 348.356 60.2589 348.356 60.7274 348.415C62.4841 348.474 64.4165 348.65 65.7048 347.589C66.7588 346.646 66.876 345.173 66.876 343.817C66.9345 341.341 66.9931 338.807 66.9931 336.331C67.0516 334.975 66.7588 333.266 65.3534 333.089ZM53.2905 364.153C53.2319 364.33 53.1734 364.507 53.1148 364.683L53.2905 364.153Z" fill="#A5B7FD"/>
<path d="M367.133 171.8C367.033 172.1 365.933 172 364.133 172C363.233 172 362.233 172.1 361.333 172.4C360.833 172.5 360.433 172.8 360.033 173.1C359.833 173.2 359.733 173.4 359.533 173.6C359.433 173.7 359.433 173.8 359.333 173.9C359.333 174 359.233 174.1 359.233 174.1L357.033 174.7C356.733 174.4 356.333 174.1 356.033 173.8C354.933 172.9 353.733 172.5 352.533 172.4C351.333 172.3 350.233 172.5 349.333 172.8C347.433 173.4 346.333 174.1 346.033 173.8C345.833 173.6 346.533 172.3 348.533 171.1C349.533 170.5 350.933 170 352.633 170C354.333 170 356.133 170.6 357.633 171.8C358.133 172.2 358.533 172.6 358.933 173L356.733 173.6C356.833 173.2 356.933 173 357.033 172.8C357.133 172.6 357.333 172.4 357.433 172.2C357.733 171.8 358.033 171.5 358.433 171.2C359.133 170.7 359.933 170.4 360.633 170.3C362.133 170 363.333 170.2 364.233 170.4C366.233 170.8 367.233 171.5 367.133 171.8Z" fill="#A5B7FD"/>
<path d="M306.77 61.282C314.17 60.182 321.47 58.982 328.87 57.882C330.47 57.582 332.17 57.382 333.67 56.682C336.17 55.482 338.07 53.282 340.27 51.682C346.27 47.482 355.07 48.582 359.87 54.182C360.97 55.382 361.87 56.882 363.27 57.682C365.67 59.082 368.67 58.082 370.87 56.382C373.07 54.682 374.77 52.282 376.97 50.582C381.57 46.882 388.27 46.282 393.37 49.182C400.97 40.682 413.47 37.682 423.77 41.882C425.57 42.582 427.37 43.582 428.77 44.982C431.47 47.782 432.57 51.982 435.27 54.882C438.07 57.882 442.17 58.882 445.97 59.782C453.27 61.382 460.67 62.782 468.07 63.982C467.37 65.782 465.07 66.182 463.17 66.182C422.37 67.782 381.47 68.582 340.57 68.482C327.37 68.482 314.17 68.382 301.17 65.782C300.67 65.682 300.27 65.582 299.87 65.382C298.17 64.282 299.17 61.082 301.07 60.382C303.17 59.482 304.77 60.882 306.77 61.282Z" fill="#EDF0FF"/>
<path d="M359 110.497C353.9 109.697 348.9 108.797 343.8 107.997C342.7 107.797 341.5 107.597 340.5 107.097C338.8 106.297 337.5 104.697 335.9 103.497C331.8 100.497 325.7 101.297 322.4 105.297C321.7 106.197 321 107.197 320.1 107.797C318.4 108.797 316.4 108.097 314.8 106.797C313.2 105.497 312.1 103.897 310.6 102.597C307.4 99.8971 302.8 99.4971 299.3 101.597C294.1 95.4971 285.4 93.2971 278.4 96.3971C277.2 96.8971 275.9 97.5971 275 98.5971C273.1 100.597 272.4 103.597 270.6 105.697C268.7 107.797 265.9 108.597 263.2 109.197C258.2 110.397 253.1 111.397 248 112.297C248.5 113.597 250.1 113.897 251.3 113.897C279.4 115.097 307.5 115.597 335.6 115.597C344.7 115.597 353.8 115.497 362.7 113.597C363 113.497 363.3 113.497 363.6 113.297C364.8 112.497 364.1 110.197 362.8 109.697C361.4 109.197 360.4 110.197 359 110.497Z" fill="#EDF0FF"/>
<path d="M339.996 160.149C339.939 160.34 339.315 160.277 338.293 160.277C337.782 160.277 337.215 160.34 336.704 160.532C336.42 160.596 336.193 160.787 335.966 160.979C335.852 161.043 335.795 161.17 335.682 161.298C335.625 161.362 335.625 161.426 335.568 161.489C335.568 161.553 335.512 161.617 335.512 161.617L334.263 162C334.093 161.809 333.865 161.617 333.695 161.426C333.071 160.851 332.39 160.596 331.708 160.532C331.027 160.468 330.403 160.596 329.892 160.787C328.813 161.17 328.189 161.617 328.019 161.426C327.905 161.298 328.302 160.468 329.438 159.702C330.005 159.319 330.8 159 331.765 159C332.73 159 333.752 159.383 334.603 160.149C334.887 160.404 335.114 160.66 335.341 160.915L334.093 161.298C334.149 161.043 334.206 160.915 334.263 160.787C334.32 160.66 334.433 160.532 334.49 160.404C334.66 160.149 334.83 159.957 335.058 159.766C335.455 159.447 335.909 159.255 336.306 159.192C337.158 159 337.839 159.128 338.35 159.255C339.485 159.511 340.053 159.957 339.996 160.149Z" fill="#A5B7FD"/>
<path d="M20 136C57.5554 136 88 105.555 88 68C88 30.4446 57.5554 0 20 0C-17.5554 0 -48 30.4446 -48 68C-48 105.555 -17.5554 136 20 136Z" fill="#F6F8FF"/>
</g>
<defs>
<linearGradient id="paint0_linear_27455_289928" x1="105.77" y1="267.955" x2="105.77" y2="491" gradientUnits="userSpaceOnUse">
<stop stop-color="#DAE1FF"/>
<stop offset="1" stop-color="white"/>
</linearGradient>
<linearGradient id="paint1_linear_27455_289928" x1="15.2082" y1="265" x2="15.2082" y2="506" gradientUnits="userSpaceOnUse">
<stop stop-color="white" stop-opacity="0.94"/>
<stop offset="1" stop-color="white"/>
</linearGradient>
<linearGradient id="paint2_linear_27455_289928" x1="189.375" y1="304.622" x2="217.644" y2="374.478" gradientUnits="userSpaceOnUse">
<stop stop-color="#4B6EFA" stop-opacity="0.29"/>
<stop offset="1" stop-color="#4B6EFA" stop-opacity="0.02"/>
</linearGradient>
<linearGradient id="paint3_linear_27455_289928" x1="106.933" y1="303.912" x2="143.481" y2="360.517" gradientUnits="userSpaceOnUse">
<stop stop-color="#4B6EFA" stop-opacity="0.29"/>
<stop offset="1" stop-color="#4B6EFA" stop-opacity="0.02"/>
</linearGradient>
<linearGradient id="paint4_linear_27455_289928" x1="304.273" y1="304.494" x2="344.245" y2="358.735" gradientUnits="userSpaceOnUse">
<stop stop-color="#4B6EFA" stop-opacity="0.29"/>
<stop offset="1" stop-color="#4B6EFA" stop-opacity="0.02"/>
</linearGradient>
<clipPath id="clip0_27455_289928">
<rect width="390" height="754" fill="white"/>
</clipPath>
</defs>
</svg>
