<svg width="23" height="22" viewBox="0 0 23 22" fill="none" xmlns="http://www.w3.org/2000/svg">
<path fill-rule="evenodd" clip-rule="evenodd" d="M18.8333 4.42527H15.9275L14.7908 3.23044C14.4516 2.86757 13.9566 2.65515 13.4433 2.65515H9.55665C9.04331 2.65515 8.54831 2.86757 8.19998 3.23044L7.07248 4.42527H4.16665C3.15831 4.42527 2.33331 5.22182 2.33331 6.19538V16.8161C2.33331 17.7896 3.15831 18.5862 4.16665 18.5862H18.8333C19.8416 18.5862 20.6666 17.7896 20.6666 16.8161V6.19538C20.6666 5.22182 19.8416 4.42527 18.8333 4.42527ZM11.5 8.85055C9.9812 8.85055 8.74998 10.0393 8.74998 11.5057C8.74998 12.9721 9.9812 14.1609 11.5 14.1609C13.0188 14.1609 14.25 12.9721 14.25 11.5057C14.25 10.0393 13.0188 8.85055 11.5 8.85055ZM6.91665 11.5057C6.91665 13.9485 8.96998 15.931 11.5 15.931C14.03 15.931 16.0833 13.9485 16.0833 11.5057C16.0833 9.06297 14.03 7.08044 11.5 7.08044C8.96998 7.08044 6.91665 9.06297 6.91665 11.5057Z" fill="#414149"/>
</svg>
