<svg width="21" height="21" viewBox="0 0 21 21" fill="none" xmlns="http://www.w3.org/2000/svg">
<path d="M2 11C2 6.58172 5.58172 3 10 3C14.4183 3 18 6.58172 18 11C18 15.4183 14.4183 19 10 19C5.58172 19 2 15.4183 2 11Z" fill="white"/>
<path fill-rule="evenodd" clip-rule="evenodd" d="M9.5129 13.9803C9.49787 13.9977 9.4821 14.0147 9.46557 14.0312C9.10139 14.3954 8.51093 14.3954 8.14675 14.0312L5.83881 11.7233C5.47463 11.3591 5.47463 10.7687 5.83881 10.4045C6.20299 10.0403 6.79345 10.0403 7.15763 10.4045L8.82188 12.0687L12.8175 8.07314C13.1817 7.70896 13.7721 7.70896 14.1363 8.07314C14.5005 8.43732 14.5005 9.02778 14.1363 9.39196L9.68209 13.8462C9.62989 13.8984 9.57305 13.9431 9.5129 13.9803Z" fill="#414149"/>
<path d="M10 17.5C6.41015 17.5 3.5 14.5899 3.5 11H0.5C0.5 16.2467 4.75329 20.5 10 20.5V17.5ZM16.5 11C16.5 14.5899 13.5899 17.5 10 17.5V20.5C15.2467 20.5 19.5 16.2467 19.5 11H16.5ZM10 4.5C13.5899 4.5 16.5 7.41015 16.5 11H19.5C19.5 5.75329 15.2467 1.5 10 1.5V4.5ZM10 1.5C4.75329 1.5 0.5 5.75329 0.5 11H3.5C3.5 7.41015 6.41015 4.5 10 4.5V1.5Z" fill="white"/>
</svg>
