<svg width="83" height="83" viewBox="0 0 83 83" fill="none" xmlns="http://www.w3.org/2000/svg">
<path fill-rule="evenodd" clip-rule="evenodd" d="M6.91663 41.5C6.91663 22.41 22.3754 6.91663 41.4654 6.91663C60.59 6.91663 76.0833 22.41 76.0833 41.5C76.0833 60.59 60.59 76.0833 41.4654 76.0833C22.3754 76.0833 6.91663 60.59 6.91663 41.5ZM44.9583 27.6666C44.9583 25.7645 43.402 24.2083 41.5 24.2083C39.5979 24.2083 38.0416 25.7645 38.0416 27.6666V41.5C38.0416 43.402 39.5979 44.9583 41.5 44.9583C43.402 44.9583 44.9583 43.402 44.9583 41.5V27.6666ZM41.5 69.1666C26.2141 69.1666 13.8333 56.7858 13.8333 41.5C13.8333 26.2141 26.2141 13.8333 41.5 13.8333C56.7858 13.8333 69.1666 26.2141 69.1666 41.5C69.1666 56.7858 56.7858 69.1666 41.5 69.1666ZM38.0416 51.875V58.7916H44.9583V51.875H38.0416Z" fill="#FD6157"/>
</svg>
