<svg width="20" height="20" viewBox="0 0 20 20" fill="none" xmlns="http://www.w3.org/2000/svg">
<path fill-rule="evenodd" clip-rule="evenodd" d="M9.99996 1.66667C5.39996 1.66667 1.66663 5.40001 1.66663 10C1.66663 14.6 5.39996 18.3333 9.99996 18.3333C14.6 18.3333 18.3333 14.6 18.3333 10C18.3333 5.40001 14.6 1.66667 9.99996 1.66667ZM9.16663 5.83334V7.5H10.8333V5.83334H9.16663ZM10.8333 13.3333C10.8333 13.7917 10.4583 14.1667 9.99996 14.1667C9.54163 14.1667 9.16663 13.7917 9.16663 13.3333V10C9.16663 9.54167 9.54163 9.16667 9.99996 9.16667C10.4583 9.16667 10.8333 9.54167 10.8333 10V13.3333ZM3.33329 10C3.33329 13.675 6.32496 16.6667 9.99996 16.6667C13.675 16.6667 16.6666 13.675 16.6666 10C16.6666 6.32501 13.675 3.33334 9.99996 3.33334C6.32496 3.33334 3.33329 6.32501 3.33329 10Z" fill="black"/>
</svg>
