<svg width="24" height="24" viewBox="0 0 24 24" fill="none" xmlns="http://www.w3.org/2000/svg">
<path fill-rule="evenodd" clip-rule="evenodd" d="M11.2727 4H4V11.2727H11.2727V4ZM9.81817 5.45454H5.45454V9.81817H9.81817V5.45454Z" fill="white"/>
<path fill-rule="evenodd" clip-rule="evenodd" d="M20 4H12.7273V11.2727H20V4ZM18.5454 5.45454H14.1818V9.81817H18.5454V5.45454Z" fill="white"/>
<path fill-rule="evenodd" clip-rule="evenodd" d="M11.2727 12.7273H4V20H11.2727V12.7273ZM9.81817 14.1818H5.45454V18.5454H9.81817V14.1818Z" fill="white"/>
<path d="M6.54545 6.54545H8.72727V8.72727H6.54545V6.54545Z" fill="white"/>
<path d="M6.54545 15.2727H8.72727V17.4545H6.54545V15.2727Z" fill="white"/>
<path d="M12.7273 12.7273H14.1818V14.1818H12.7273V12.7273Z" fill="white"/>
<path d="M15.6364 12.7273H17.0909V14.1818H15.6364V12.7273Z" fill="white"/>
<path d="M18.5455 12.7273H20V14.1818H18.5455V12.7273Z" fill="white"/>
<path d="M12.7273 15.6364H14.1818V17.0909H12.7273V15.6364Z" fill="white"/>
<path d="M12.7273 17.0909H14.1818V18.5455H12.7273V17.0909Z" fill="white"/>
<path d="M12.7273 18.5455H14.1818V20H12.7273V18.5455Z" fill="white"/>
<path d="M14.1818 18.5455L15.6363 18.5455V20H14.1818V18.5455Z" fill="white"/>
<path d="M15.6364 15.6364H17.0909V17.0909H15.6364V15.6364Z" fill="white"/>
<path d="M14.1818 14.1818H15.6364V15.6364H14.1818V14.1818Z" fill="white"/>
<path d="M17.0909 15.6364H18.5455V17.0909H17.0909V15.6364Z" fill="white"/>
<path d="M17.0909 15.6364H18.5455V17.0909H17.0909V15.6364Z" fill="white"/>
<path d="M18.5455 15.6364H20V17.0909H18.5455V15.6364Z" fill="white"/>
<path d="M18.5455 17.0909H20V18.5455H18.5455L18.5455 17.0909Z" fill="white"/>
<path d="M18.5455 18.5455H20V20H18.5455V18.5455Z" fill="white"/>
<path d="M17.0909 18.5455L18.5455 18.5455V20H17.0909V18.5455Z" fill="white"/>
<path d="M15.2727 6.54545H17.4545V8.72727H15.2727V6.54545Z" fill="white"/>
<path fill-rule="evenodd" clip-rule="evenodd" d="M17.85 0C17.3806 0 17 0.380558 17 0.85C17 1.31944 17.3806 1.7 17.85 1.7H22.3L22.3 6.15C22.3 6.61944 22.6806 7 23.15 7C23.6194 7 24 6.61944 24 6.15V0.85C24 0.380558 23.6194 0 23.15 0H17.85Z" fill="white"/>
<path fill-rule="evenodd" clip-rule="evenodd" d="M17.85 24C17.3806 24 17 23.6194 17 23.15C17 22.6806 17.3806 22.3 17.85 22.3H22.3L22.3 17.85C22.3 17.3806 22.6806 17 23.15 17C23.6194 17 24 17.3806 24 17.85V23.15C24 23.6194 23.6194 24 23.15 24H17.85Z" fill="white"/>
<path fill-rule="evenodd" clip-rule="evenodd" d="M6.15 24C6.61944 24 7 23.6194 7 23.15C7 22.6806 6.61944 22.3 6.15 22.3H1.7L1.7 17.85C1.7 17.3806 1.31944 17 0.85 17C0.380558 17 0 17.3806 0 17.85V23.15C0 23.6194 0.380558 24 0.85 24H6.15Z" fill="white"/>
<path fill-rule="evenodd" clip-rule="evenodd" d="M6.15 0C6.61944 0 7 0.380558 7 0.85C7 1.31944 6.61944 1.7 6.15 1.7H1.7L1.7 6.15C1.7 6.61944 1.31944 7 0.85 7C0.380558 7 0 6.61944 0 6.15V0.85C0 0.380558 0.380558 0 0.85 0H6.15Z" fill="white"/>
</svg>
