<svg width="23" height="22" viewBox="0 0 23 22" fill="none" xmlns="http://www.w3.org/2000/svg">
<g clip-path="url(#clip0)">
<path d="M10.6836 0.0872021C9.12813 0.402504 7.89492 1.53925 7.49961 3.02864C7.42227 3.32734 7.40078 3.53063 7.38789 4.34377L7.36641 5.31042H6.2793C5.61328 5.31042 5.14062 5.32702 5.06758 5.35606C4.9 5.41414 4.71953 5.58839 4.66797 5.74189C4.61211 5.91199 3.46484 18.188 3.46484 18.6112C3.46914 19.8392 4.38438 20.9262 5.63477 21.1792C6.08594 21.2705 16.9141 21.2705 17.3652 21.1792C18.1344 21.0216 18.925 20.4408 19.2473 19.7894C19.4449 19.387 19.5352 19.026 19.5352 18.5904C19.5352 18.2834 18.4094 6.13187 18.3535 5.83316C18.3234 5.66306 18.1301 5.43489 17.9625 5.36851C17.8508 5.32287 17.5629 5.31042 16.725 5.31042H15.6336L15.6121 4.34377C15.5906 3.29415 15.5477 3.04523 15.3199 2.4976C14.5938 0.738548 12.5957 -0.298628 10.6836 0.0872021ZM12.0801 1.3899C13.0254 1.58074 13.8418 2.31091 14.1426 3.23607C14.2027 3.41446 14.2242 3.66754 14.2371 4.38526L14.2586 5.31042H11.5043H8.75V4.50972C8.75 3.55967 8.80156 3.27756 9.05938 2.77971C9.60938 1.71764 10.8598 1.14512 12.0801 1.3899Z" fill="white"/>
</g>
<defs>
<clipPath id="clip0">
<rect width="22" height="21.2414" fill="white" transform="translate(0.5)"/>
</clipPath>
</defs>
</svg>
