<svg width="35" height="35" viewBox="0 0 35 35" fill="none" xmlns="http://www.w3.org/2000/svg">
<path fill-rule="evenodd" clip-rule="evenodd" d="M35 0H0V35H17.5C17.6016 35 17.7031 35 17.8047 34.9934V34H17.8076V21.376H14.0479V16.9941H17.8076V13.7676C17.8076 10.0283 20.0908 7.99121 23.4268 7.99121C25.0264 7.99121 26.4004 8.10742 26.7969 8.16211V12.0723H24.5C22.6885 12.0723 22.333 12.9336 22.333 14.1982V16.9873H26.6738L26.1064 21.3691H22.333V33.9931L22.3281 34V35H35V0ZM7.5 3L7.66493 3.02249C7.62146 3.05208 7.57813 3.08185 7.53494 3.11182L7.5 3Z" fill="#C4C4C4"/>
</svg>
