<svg width="36" height="35" viewBox="0 0 36 35" fill="none" xmlns="http://www.w3.org/2000/svg">
<g clip-path="url(#clip0_33511_139952)">
<path fill-rule="evenodd" clip-rule="evenodd" d="M35.75 17.5C35.75 27.165 27.915 35 18.25 35C8.58502 35 0.75 27.165 0.75 17.5C0.75 7.83502 8.58502 0 18.25 0C27.915 0 35.75 7.83502 35.75 17.5ZM8.95755 14.0347C9.24849 14.24 10.1255 14.8498 11.5887 15.8637C13.0518 16.8776 14.1727 17.6583 14.9514 18.2058C15.037 18.2658 15.2187 18.3963 15.4967 18.5973C15.7748 18.7986 16.0059 18.9612 16.1898 19.0852C16.3738 19.2092 16.5962 19.3483 16.8573 19.5022C17.1183 19.6561 17.3643 19.7718 17.5954 19.8484C17.8264 19.9256 18.0403 19.9639 18.2371 19.9639H18.25H18.2629C18.4597 19.9639 18.6737 19.9256 18.9048 19.8484C19.1357 19.7718 19.382 19.6559 19.6427 19.5022C19.9037 19.3481 20.1261 19.2091 20.3101 19.0852C20.4941 18.9612 20.725 18.7986 21.0032 18.5973C21.2812 18.3961 21.4631 18.2658 21.5487 18.2058C22.3358 17.6583 24.3382 16.2678 27.5553 14.0344C28.1799 13.5982 28.7017 13.0719 29.1209 12.4558C29.5405 11.84 29.75 11.1939 29.75 10.518C29.75 9.95323 29.5467 9.46974 29.1402 9.06762C28.7338 8.66541 28.2524 8.46442 27.6964 8.46442H8.80349C8.14468 8.46442 7.63768 8.68685 7.28258 9.13173C6.92753 9.57669 6.75 10.1329 6.75 10.8002C6.75 11.3393 6.98538 11.9234 7.45592 12.5523C7.92642 13.1812 8.42713 13.6754 8.95755 14.0347ZM22.0748 19.836C23.5292 18.7834 25.6601 17.3073 28.4663 15.4079C28.9543 15.0743 29.382 14.7018 29.75 14.2913V24.4819C29.75 25.047 29.5491 25.53 29.1468 25.9323C28.7447 26.3346 28.2612 26.5357 27.6965 26.5357H8.80362C8.23885 26.5357 7.75532 26.3346 7.3532 25.9323C6.95099 25.5302 6.75 25.0469 6.75 24.4819V14.2913C7.1265 14.7105 7.5586 15.083 8.04645 15.4079C11.1439 17.5127 13.2701 18.9889 14.4253 19.836C14.913 20.1952 15.3088 20.4756 15.6125 20.6766C15.9162 20.8777 16.3206 21.083 16.8253 21.2926C17.3301 21.5024 17.8008 21.607 18.2371 21.607H18.25H18.2631C18.6996 21.607 19.17 21.5024 19.6747 21.2926C20.1797 21.083 20.5838 20.8777 20.8876 20.6766C21.1915 20.4756 21.5871 20.1952 22.0748 19.836Z" fill="#CBD1D4"/>
</g>
<defs>
<clipPath id="clip0_33511_139952">
<rect x="0.75" width="35" height="35" rx="17.5" fill="white"/>
</clipPath>
</defs>
</svg>
