<svg width="35" height="35" viewBox="0 0 35 35" fill="none" xmlns="http://www.w3.org/2000/svg">
<g clip-path="url(#clip0)">
<path d="M29.8722 5.1234C23.037 -1.70973 11.9565 -1.70809 5.1234 5.12716C-1.70973 11.9624 -1.70809 23.0428 5.12716 29.8759C11.9624 36.709 23.0428 36.7074 29.8759 29.8721C33.1576 26.5895 35.0007 22.1376 34.9997 17.4959C34.9987 12.855 33.1543 8.40451 29.8722 5.1234ZM26.5028 24.3769C26.502 24.3777 26.5013 24.3785 26.5005 24.3793V24.3735L25.6138 25.2543C24.4671 26.4155 22.797 26.8933 21.2096 26.5143C19.6103 26.0862 18.09 25.4048 16.7063 24.496C15.4207 23.6743 14.2293 22.7139 13.1538 21.6318C12.1641 20.6494 11.2751 19.5707 10.4996 18.4118C9.65139 17.1648 8.98003 15.8063 8.50459 14.3751C7.95956 12.6937 8.41121 10.8488 9.67128 9.60928L10.7096 8.57096C10.9983 8.28098 11.4674 8.27996 11.7573 8.56864C11.758 8.56939 11.7588 8.57014 11.7596 8.57096L15.0379 11.8493C15.3279 12.138 15.3289 12.607 15.0402 12.897C15.0395 12.8977 15.0387 12.8985 15.0379 12.8993L13.1129 14.8243C12.5606 15.3706 12.4911 16.2388 12.9496 16.866C13.6458 17.8215 14.4163 18.7206 15.2538 19.5552C16.1875 20.4929 17.2026 21.346 18.2871 22.1043C18.9137 22.5414 19.7633 22.4677 20.3054 21.9293L22.1662 20.0393C22.4549 19.7494 22.924 19.7483 23.2139 20.037C23.2146 20.0378 23.2154 20.0385 23.2162 20.0393L26.5004 23.3293C26.7904 23.618 26.7915 24.087 26.5028 24.3769Z" fill="#C4C4C4"/>
</g>
<defs>
<clipPath id="clip0">
<rect width="35" height="35" fill="white"/>
</clipPath>
</defs>
</svg>
