<svg width="35" height="35" viewBox="0 0 35 35" fill="none" xmlns="http://www.w3.org/2000/svg">
<path fill-rule="evenodd" clip-rule="evenodd" d="M35 0H0V35H35V0ZM26.1862 15.2083C26.3672 15.2083 26.5469 15.1973 26.7251 15.1808V11.53C23.8917 11.327 21.6246 9.1107 21.3298 6.30329H18.1905C18.1905 6.30329 18.1576 21.5472 18.1576 21.6226C18.1576 23.5016 16.4981 24.9828 14.6178 24.9828C12.7375 24.9828 11.2152 23.4591 11.2152 21.5801C11.2152 19.7012 12.7389 18.1775 14.6178 18.1775C14.7232 18.1775 14.824 18.1912 14.9253 18.2051C14.9598 18.2098 14.9944 18.2145 15.0292 18.2187V14.9326C14.9958 14.9306 14.9625 14.9283 14.929 14.926C14.8264 14.9191 14.7233 14.912 14.6178 14.912C10.9367 14.912 7.95105 17.8964 7.95105 21.5788C7.95105 25.2598 10.9367 28.2455 14.6178 28.2469C18.2988 28.2469 21.2845 25.2625 21.2845 21.5801V12.56C22.3337 14.155 24.1358 15.2083 26.1862 15.2083Z" fill="#CBD1D4"/>
</svg>
