<svg width="35" height="35" viewBox="0 0 35 35" fill="none" xmlns="http://www.w3.org/2000/svg">
<path fill-rule="evenodd" clip-rule="evenodd" d="M35 17.5C35 27.165 27.165 35 17.5 35C7.83502 35 0 27.165 0 17.5C0 7.83502 7.83502 0 17.5 0C27.165 0 35 7.83502 35 17.5ZM8.20755 14.0347C8.49849 14.24 9.37551 14.8498 10.8387 15.8637C12.3018 16.8776 13.4227 17.6583 14.2014 18.2058C14.287 18.2658 14.4687 18.3963 14.7467 18.5973C15.0248 18.7986 15.2559 18.9612 15.4398 19.0852C15.6238 19.2092 15.8462 19.3483 16.1073 19.5022C16.3683 19.6561 16.6143 19.7718 16.8454 19.8484C17.0764 19.9256 17.2903 19.9639 17.4871 19.9639H17.5H17.5129C17.7097 19.9639 17.9237 19.9256 18.1548 19.8484C18.3857 19.7718 18.632 19.6559 18.8927 19.5022C19.1537 19.3481 19.3761 19.2091 19.5601 19.0852C19.7441 18.9612 19.975 18.7986 20.2532 18.5973C20.5312 18.3961 20.7131 18.2658 20.7987 18.2058C21.5858 17.6583 23.5882 16.2678 26.8053 14.0344C27.4299 13.5982 27.9517 13.0719 28.3709 12.4558C28.7905 11.84 29 11.1939 29 10.518C29 9.95323 28.7967 9.46974 28.3902 9.06762C27.9838 8.66541 27.5024 8.46442 26.9464 8.46442H8.05349C7.39468 8.46442 6.88768 8.68685 6.53258 9.13173C6.17753 9.57669 6 10.1329 6 10.8002C6 11.3393 6.23538 11.9234 6.70592 12.5523C7.17642 13.1812 7.67713 13.6754 8.20755 14.0347ZM21.3248 19.836C22.7792 18.7834 24.9101 17.3073 27.7163 15.4079C28.2043 15.0743 28.632 14.7018 29 14.2913V24.4819C29 25.047 28.7991 25.53 28.3968 25.9323C27.9947 26.3346 27.5112 26.5357 26.9465 26.5357H8.05362C7.48885 26.5357 7.00532 26.3346 6.6032 25.9323C6.20099 25.5302 6 25.0469 6 24.4819V14.2913C6.3765 14.7105 6.8086 15.083 7.29645 15.4079C10.3939 17.5127 12.5201 18.9889 13.6753 19.836C14.163 20.1952 14.5588 20.4756 14.8625 20.6766C15.1662 20.8777 15.5706 21.083 16.0753 21.2926C16.5801 21.5024 17.0508 21.607 17.4871 21.607H17.5H17.5131C17.9496 21.607 18.42 21.5024 18.9247 21.2926C19.4297 21.083 19.8338 20.8777 20.1376 20.6766C20.4415 20.4756 20.8371 20.1952 21.3248 19.836Z" fill="#98A3AA"/>
</svg>
