<svg width="109" height="19" viewBox="0 0 109 19" fill="none" xmlns="http://www.w3.org/2000/svg">
<path d="M8.88316 5.216C8.88316 5.852 8.73316 6.452 8.43316 7.016C8.13316 7.58 7.65316 8.042 6.99316 8.402C6.33316 8.75 5.48716 8.924 4.45516 8.924H2.18716V14H0.135156V1.49H4.45516C5.41516 1.49 6.22516 1.658 6.88516 1.994C7.55716 2.318 8.05516 2.762 8.37916 3.326C8.71516 3.89 8.88316 4.52 8.88316 5.216ZM4.45516 7.25C5.23516 7.25 5.81716 7.076 6.20116 6.728C6.58516 6.368 6.77716 5.864 6.77716 5.216C6.77716 3.848 6.00316 3.164 4.45516 3.164H2.18716V7.25H4.45516ZM15.6422 14.162C14.7062 14.162 13.8602 13.952 13.1042 13.532C12.3482 13.1 11.7542 12.5 11.3222 11.732C10.8902 10.952 10.6742 10.052 10.6742 9.032C10.6742 8.024 10.8962 7.13 11.3402 6.35C11.7842 5.57 12.3902 4.97 13.1582 4.55C13.9262 4.13 14.7842 3.92 15.7322 3.92C16.6802 3.92 17.5382 4.13 18.3062 4.55C19.0742 4.97 19.6802 5.57 20.1242 6.35C20.5682 7.13 20.7902 8.024 20.7902 9.032C20.7902 10.04 20.5622 10.934 20.1062 11.714C19.6502 12.494 19.0262 13.1 18.2342 13.532C17.4542 13.952 16.5902 14.162 15.6422 14.162ZM15.6422 12.38C16.1702 12.38 16.6622 12.254 17.1182 12.002C17.5862 11.75 17.9642 11.372 18.2522 10.868C18.5402 10.364 18.6842 9.752 18.6842 9.032C18.6842 8.312 18.5462 7.706 18.2702 7.214C17.9942 6.71 17.6282 6.332 17.1722 6.08C16.7162 5.828 16.2242 5.702 15.6962 5.702C15.1682 5.702 14.6762 5.828 14.2202 6.08C13.7762 6.332 13.4222 6.71 13.1582 7.214C12.8942 7.706 12.7622 8.312 12.7622 9.032C12.7622 10.1 13.0322 10.928 13.5722 11.516C14.1242 12.092 14.8142 12.38 15.6422 12.38ZM36.6388 4.082L33.5608 14H31.4008L29.4028 6.674L27.4048 14H25.2448L22.1488 4.082H24.2368L26.3068 12.056L28.4128 4.082H30.5548L32.5708 12.02L34.6228 4.082H36.6388ZM47.7623 8.798C47.7623 9.17 47.7383 9.506 47.6903 9.806H40.1123C40.1723 10.598 40.4663 11.234 40.9943 11.714C41.5223 12.194 42.1703 12.434 42.9383 12.434C44.0423 12.434 44.8223 11.972 45.2783 11.048H47.4923C47.1923 11.96 46.6463 12.71 45.8543 13.298C45.0743 13.874 44.1023 14.162 42.9383 14.162C41.9903 14.162 41.1383 13.952 40.3823 13.532C39.6383 13.1 39.0503 12.5 38.6183 11.732C38.1983 10.952 37.9883 10.052 37.9883 9.032C37.9883 8.012 38.1923 7.118 38.6003 6.35C39.0203 5.57 39.6023 4.97 40.3463 4.55C41.1023 4.13 41.9663 3.92 42.9383 3.92C43.8743 3.92 44.7083 4.124 45.4403 4.532C46.1723 4.94 46.7423 5.516 47.1503 6.26C47.5583 6.992 47.7623 7.838 47.7623 8.798ZM45.6203 8.15C45.6083 7.394 45.3383 6.788 44.8103 6.332C44.2823 5.876 43.6283 5.648 42.8483 5.648C42.1403 5.648 41.5343 5.876 41.0303 6.332C40.5263 6.776 40.2263 7.382 40.1303 8.15H45.6203ZM52.3336 5.522C52.6336 5.018 53.0296 4.628 53.5216 4.352C54.0256 4.064 54.6196 3.92 55.3036 3.92V6.044H54.7816C53.9776 6.044 53.3656 6.248 52.9456 6.656C52.5376 7.064 52.3336 7.772 52.3336 8.78V14H50.2816V4.082H52.3336V5.522ZM66.7798 8.798C66.7798 9.17 66.7558 9.506 66.7078 9.806H59.1298C59.1898 10.598 59.4838 11.234 60.0118 11.714C60.5398 12.194 61.1878 12.434 61.9558 12.434C63.0598 12.434 63.8398 11.972 64.2958 11.048H66.5098C66.2098 11.96 65.6638 12.71 64.8718 13.298C64.0918 13.874 63.1198 14.162 61.9558 14.162C61.0078 14.162 60.1558 13.952 59.3998 13.532C58.6558 13.1 58.0678 12.5 57.6358 11.732C57.2158 10.952 57.0058 10.052 57.0058 9.032C57.0058 8.012 57.2098 7.118 57.6178 6.35C58.0378 5.57 58.6198 4.97 59.3638 4.55C60.1198 4.13 60.9838 3.92 61.9558 3.92C62.8918 3.92 63.7258 4.124 64.4578 4.532C65.1898 4.94 65.7598 5.516 66.1678 6.26C66.5758 6.992 66.7798 7.838 66.7798 8.798ZM64.6378 8.15C64.6258 7.394 64.3558 6.788 63.8278 6.332C63.2998 5.876 62.6458 5.648 61.8658 5.648C61.1578 5.648 60.5518 5.876 60.0478 6.332C59.5438 6.776 59.2438 7.382 59.1478 8.15H64.6378ZM68.6152 8.996C68.6152 8 68.8192 7.118 69.2272 6.35C69.6472 5.582 70.2112 4.988 70.9192 4.568C71.6392 4.136 72.4372 3.92 73.3132 3.92C73.9612 3.92 74.5972 4.064 75.2212 4.352C75.8572 4.628 76.3612 5 76.7332 5.468V0.68H78.8032V14H76.7332V12.506C76.3972 12.986 75.9292 13.382 75.3292 13.694C74.7412 14.006 74.0632 14.162 73.2952 14.162C72.4312 14.162 71.6392 13.946 70.9192 13.514C70.2112 13.07 69.6472 12.458 69.2272 11.678C68.8192 10.886 68.6152 9.992 68.6152 8.996ZM76.7332 9.032C76.7332 8.348 76.5892 7.754 76.3012 7.25C76.0252 6.746 75.6592 6.362 75.2032 6.098C74.7472 5.834 74.2552 5.702 73.7272 5.702C73.1992 5.702 72.7072 5.834 72.2512 6.098C71.7952 6.35 71.4232 6.728 71.1352 7.232C70.8592 7.724 70.7212 8.312 70.7212 8.996C70.7212 9.68 70.8592 10.28 71.1352 10.796C71.4232 11.312 71.7952 11.708 72.2512 11.984C72.7192 12.248 73.2112 12.38 73.7272 12.38C74.2552 12.38 74.7472 12.248 75.2032 11.984C75.6592 11.72 76.0252 11.336 76.3012 10.832C76.5892 10.316 76.7332 9.716 76.7332 9.032ZM89.2262 5.558C89.5742 5.078 90.0482 4.688 90.6482 4.388C91.2602 4.076 91.9382 3.92 92.6822 3.92C93.5582 3.92 94.3502 4.13 95.0582 4.55C95.7662 4.97 96.3242 5.57 96.7322 6.35C97.1402 7.118 97.3442 8 97.3442 8.996C97.3442 9.992 97.1402 10.886 96.7322 11.678C96.3242 12.458 95.7602 13.07 95.0402 13.514C94.3322 13.946 93.5462 14.162 92.6822 14.162C91.9142 14.162 91.2302 14.012 90.6302 13.712C90.0422 13.412 89.5742 13.028 89.2262 12.56V14H87.1742V0.68H89.2262V5.558ZM95.2562 8.996C95.2562 8.312 95.1122 7.724 94.8242 7.232C94.5482 6.728 94.1762 6.35 93.7082 6.098C93.2522 5.834 92.7602 5.702 92.2322 5.702C91.7162 5.702 91.2242 5.834 90.7562 6.098C90.3002 6.362 89.9282 6.746 89.6402 7.25C89.3642 7.754 89.2262 8.348 89.2262 9.032C89.2262 9.716 89.3642 10.316 89.6402 10.832C89.9282 11.336 90.3002 11.72 90.7562 11.984C91.2242 12.248 91.7162 12.38 92.2322 12.38C92.7602 12.38 93.2522 12.248 93.7082 11.984C94.1762 11.708 94.5482 11.312 94.8242 10.796C95.1122 10.28 95.2562 9.68 95.2562 8.996ZM108.801 4.082L102.717 18.662H100.593L102.609 13.838L98.7034 4.082H100.989L103.779 11.642L106.677 4.082H108.801Z" fill="white"/>
</svg>
