<svg width="291" height="128" viewBox="0 0 291 128" fill="none" xmlns="http://www.w3.org/2000/svg">
<path d="M90.0808 82.8699V80.3699H87.5808H74.2688V7.17589V4.67589H71.7688H56.3482H54.9871L54.2484 5.81906L3.21176 84.8007L2.81152 85.4201V86.1575V94.6897V97.1897H5.31152H54.7093V121.147V123.647H57.2093H71.7688H74.2688V121.147V97.1897H87.5808H90.0808V94.6897V82.8699ZM54.7093 80.3699H26.3158L54.7093 35.9681V80.3699ZM117.237 112.122L117.242 112.129C123.664 120.959 133.511 125.213 146.269 125.213C159.194 125.213 169.11 120.845 175.477 111.782C181.706 102.916 184.62 89.6956 184.62 72.5373V53.7508V53.7388L184.62 53.7269C184.462 37.1414 181.463 24.4012 175.209 15.9473C168.827 7.26636 158.946 3.11035 146.113 3.11035C133.152 3.11035 123.209 7.41383 116.835 16.3722C110.599 25.1368 107.683 38.2062 107.683 55.1598V74.4942V74.5105L107.684 74.5268C107.895 90.7761 110.958 103.433 117.237 112.122ZM160.339 27.266L160.345 27.2749C163.413 32.2498 165.139 40.5919 165.139 52.7332V76.4344C164.983 88.1863 163.165 96.3255 160.046 101.26L160.042 101.267L160.037 101.274C157.1 105.992 152.655 108.393 146.269 108.393C139.828 108.393 135.238 105.875 132.123 100.826C128.933 95.5168 127.165 86.9696 127.165 74.8073V51.6489C127.269 40.2186 129.007 32.1851 132.046 27.1821C134.916 22.4566 139.436 20.0085 146.113 20.0085C152.839 20.0085 157.415 22.4812 160.339 27.266ZM288.118 82.8699V80.3699H285.618H272.306V7.17589V4.67589H269.806H254.386H253.025L252.286 5.81906L201.249 84.8007L200.849 85.4201V86.1575V94.6897V97.1897H203.349H252.747V121.147V123.647H255.247H269.806H272.306V121.147V97.1897H285.618H288.118V94.6897V82.8699ZM252.747 80.3699H224.353L252.747 35.9681V80.3699Z" fill="#4B6EFA" stroke="#4B6EFA" stroke-width="5"/>
</svg>
