<svg width="52" height="20" viewBox="0 0 52 20" fill="none" xmlns="http://www.w3.org/2000/svg">
<g clip-path="url(#clip0)">
<path d="M48.6177 15.3003C48.6177 16.3381 48.1427 16.8581 47.3319 16.8581C46.4613 16.8581 45.9472 16.2789 45.9472 15.081H42.5845C42.5845 18.2359 44.5821 19.9121 47.4308 19.9121C50.1806 19.9121 52 18.3149 52 15.3003V5.75653H48.6177V15.3003ZM33.6657 19.7728H37.0481V5.75653H33.6657V19.7728ZM11.0774 15.9597C11.0774 14.3624 10.0285 12.9254 8.40694 12.5853C9.75252 12.186 10.7611 11.0879 10.7611 9.39089C10.7611 7.17499 9.07973 5.75769 6.25058 5.75769H0V19.7728H6.46794C9.396 19.7728 11.0774 18.2754 11.0774 15.9597ZM7.31899 9.97011C7.31899 10.9289 6.706 11.428 5.5985 11.428H3.38233V8.49246H5.59735C6.706 8.49246 7.31899 9.01132 7.31899 9.97011ZM7.6548 15.5C7.6548 16.4983 7.00157 17.0171 5.87451 17.0171H3.38233V13.9225H5.83541C6.96247 13.9225 7.6548 14.5017 7.6548 15.5Z" fill="#4B6EFA"/>
<path d="M16.3239 5.75568V19.7708H19.7063V14.48H20.5171L23.4049 19.7708H27.2231L24.019 14.22C26.1558 13.5816 27.1046 11.924 27.1046 10.1666C27.1046 7.7313 25.4037 5.75452 22.0006 5.75452H16.3239V5.75568ZM23.6636 10.3082C23.6636 11.4063 23.0702 12.0656 21.804 12.0656H19.7074V8.59143H21.804C23.0702 8.59143 23.6636 9.27048 23.6636 10.3082Z" fill="#4B6EFA"/>
<path d="M52 0.0888062H0V2.34185H52V0.0888062Z" fill="#4B6EFA"/>
</g>
<defs>
<clipPath id="clip0">
<rect width="52" height="19.8224" fill="white" transform="translate(0 0.0888062)"/>
</clipPath>
</defs>
</svg>
