<svg width="32" height="32" viewBox="0 0 32 32" fill="none" xmlns="http://www.w3.org/2000/svg">
<path fill-rule="evenodd" clip-rule="evenodd" d="M32 0H0V32H16C16.0929 32 16.1857 32 16.2786 31.9939V31.0857H16.2812V19.5438H12.8438V15.5375H16.2812V12.5875C16.2812 9.16875 18.3688 7.30625 21.4188 7.30625C22.8813 7.30625 24.1375 7.4125 24.5 7.4625V11.0375H22.4C20.7437 11.0375 20.4188 11.825 20.4188 12.9812V15.5312H24.3875L23.8687 19.5375H20.4188V31.0794L20.4143 31.0857V32H32V0ZM6.85714 2.74286L7.00794 2.76342C6.96819 2.79047 6.92858 2.81769 6.88909 2.84509L6.85714 2.74286Z" fill="black"/>
</svg>
