<svg width="32" height="32" viewBox="0 0 32 32" fill="none" xmlns="http://www.w3.org/2000/svg">
<path d="M15.8406 13.5814V18.7052H22.865C22.2112 21.9612 19.4744 23.8319 15.8406 23.8319C11.608 23.7729 8.20738 20.2808 8.20738 15.9933C8.20738 11.7058 11.608 8.21372 15.8406 8.15472C17.5999 8.15258 19.3051 8.77099 20.6632 9.90372L24.4745 6.04344C20.1027 2.1506 13.718 1.6499 8.80676 4.81475C3.89549 7.9796 1.63795 14.0494 3.26684 19.7097C4.89574 25.3701 10.0196 29.2607 15.8406 29.2571C22.3886 29.2571 28.3429 24.4332 28.3429 15.9926C28.3328 15.1799 28.2344 14.3708 28.0497 13.5799L15.8406 13.5814Z" fill="black"/>
</svg>
