<svg width="116" height="28" viewBox="0 0 116 28" fill="none" xmlns="http://www.w3.org/2000/svg">
<path fill-rule="evenodd" clip-rule="evenodd" d="M10.6 2.84204C9.20526 5.04607 4.68632 8.42099 0 8.42099C0 8.42099 2.23158 20.1988 10.6 25.1578C18.9684 20.1988 21.2 8.42099 21.2 8.42099C16.5137 8.42099 11.9947 5.04607 10.6 2.84204ZM13.9477 17.3473V10.6526H12.5577L10.6047 15.6305L8.6517 10.6526H7.25293V17.3473H8.48455V12.9929L10.1384 17.3473H11.071L12.716 12.9929V17.3473H13.9477Z" fill="#202029"/>
<path d="M34.0862 5.563C34.0862 6.085 33.9062 6.52 33.5462 6.868C33.1922 7.21 32.6492 7.381 31.9172 7.381H30.7112V10H29.8922V3.727H31.9172C32.6252 3.727 33.1622 3.898 33.5282 4.24C33.9002 4.582 34.0862 5.023 34.0862 5.563ZM31.9172 6.706C32.3732 6.706 32.7092 6.607 32.9252 6.409C33.1412 6.211 33.2492 5.929 33.2492 5.563C33.2492 4.789 32.8052 4.402 31.9172 4.402H30.7112V6.706H31.9172ZM38.5071 10L37.0131 7.435H36.0231V10H35.2041V3.727H37.2291C37.7031 3.727 38.1021 3.808 38.4261 3.97C38.7561 4.132 39.0021 4.351 39.1641 4.627C39.3261 4.903 39.4071 5.218 39.4071 5.572C39.4071 6.004 39.2811 6.385 39.0291 6.715C38.7831 7.045 38.4111 7.264 37.9131 7.372L39.4881 10H38.5071ZM36.0231 6.778H37.2291C37.6731 6.778 38.0061 6.67 38.2281 6.454C38.4501 6.232 38.5611 5.938 38.5611 5.572C38.5611 5.2 38.4501 4.912 38.2281 4.708C38.0121 4.504 37.6791 4.402 37.2291 4.402H36.0231V6.778ZM43.6237 10.063C43.0417 10.063 42.5107 9.928 42.0307 9.658C41.5507 9.382 41.1697 9.001 40.8877 8.515C40.6117 8.023 40.4737 7.471 40.4737 6.859C40.4737 6.247 40.6117 5.698 40.8877 5.212C41.1697 4.72 41.5507 4.339 42.0307 4.069C42.5107 3.793 43.0417 3.655 43.6237 3.655C44.2117 3.655 44.7457 3.793 45.2257 4.069C45.7057 4.339 46.0837 4.717 46.3597 5.203C46.6357 5.689 46.7737 6.241 46.7737 6.859C46.7737 7.477 46.6357 8.029 46.3597 8.515C46.0837 9.001 45.7057 9.382 45.2257 9.658C44.7457 9.928 44.2117 10.063 43.6237 10.063ZM43.6237 9.352C44.0617 9.352 44.4547 9.25 44.8027 9.046C45.1567 8.842 45.4327 8.551 45.6307 8.173C45.8347 7.795 45.9367 7.357 45.9367 6.859C45.9367 6.355 45.8347 5.917 45.6307 5.545C45.4327 5.167 45.1597 4.876 44.8117 4.672C44.4637 4.468 44.0677 4.366 43.6237 4.366C43.1797 4.366 42.7837 4.468 42.4357 4.672C42.0877 4.876 41.8117 5.167 41.6077 5.545C41.4097 5.917 41.3107 6.355 41.3107 6.859C41.3107 7.357 41.4097 7.795 41.6077 8.173C41.8117 8.551 42.0877 8.842 42.4357 9.046C42.7897 9.25 43.1857 9.352 43.6237 9.352ZM51.8159 3.727V4.393H50.1059V10H49.2869V4.393H47.5679V3.727H51.8159ZM53.7431 4.393V6.49H56.0291V7.165H53.7431V9.325H56.2991V10H52.9241V3.718H56.2991V4.393H53.7431ZM57.3323 6.859C57.3323 6.247 57.4703 5.698 57.7463 5.212C58.0223 4.72 58.3973 4.336 58.8713 4.06C59.3513 3.784 59.8823 3.646 60.4643 3.646C61.1483 3.646 61.7453 3.811 62.2553 4.141C62.7653 4.471 63.1373 4.939 63.3713 5.545H62.3903C62.2163 5.167 61.9643 4.876 61.6343 4.672C61.3103 4.468 60.9203 4.366 60.4643 4.366C60.0263 4.366 59.6333 4.468 59.2853 4.672C58.9373 4.876 58.6643 5.167 58.4663 5.545C58.2683 5.917 58.1693 6.355 58.1693 6.859C58.1693 7.357 58.2683 7.795 58.4663 8.173C58.6643 8.545 58.9373 8.833 59.2853 9.037C59.6333 9.241 60.0263 9.343 60.4643 9.343C60.9203 9.343 61.3103 9.244 61.6343 9.046C61.9643 8.842 62.2163 8.551 62.3903 8.173H63.3713C63.1373 8.773 62.7653 9.238 62.2553 9.568C61.7453 9.892 61.1483 10.054 60.4643 10.054C59.8823 10.054 59.3513 9.919 58.8713 9.649C58.3973 9.373 58.0223 8.992 57.7463 8.506C57.4703 8.02 57.3323 7.471 57.3323 6.859ZM68.5515 3.727V4.393H66.8415V10H66.0225V4.393H64.3035V3.727H68.5515ZM70.4786 4.393V6.49H72.7646V7.165H70.4786V9.325H73.0346V10H69.6596V3.718H73.0346V4.393H70.4786ZM76.3269 3.727C77.0109 3.727 77.6019 3.856 78.0999 4.114C78.6039 4.366 78.9879 4.729 79.2519 5.203C79.5219 5.677 79.6569 6.235 79.6569 6.877C79.6569 7.519 79.5219 8.077 79.2519 8.551C78.9879 9.019 78.6039 9.379 78.0999 9.631C77.6019 9.877 77.0109 10 76.3269 10H74.3739V3.727H76.3269ZM76.3269 9.325C77.1369 9.325 77.7549 9.112 78.1809 8.686C78.6069 8.254 78.8199 7.651 78.8199 6.877C78.8199 6.097 78.6039 5.488 78.1719 5.05C77.7459 4.612 77.1309 4.393 76.3269 4.393H75.1929V9.325H76.3269ZM86.4776 6.769C86.7056 6.805 86.9126 6.898 87.0986 7.048C87.2906 7.198 87.4406 7.384 87.5486 7.606C87.6626 7.828 87.7196 8.065 87.7196 8.317C87.7196 8.635 87.6386 8.923 87.4766 9.181C87.3146 9.433 87.0776 9.634 86.7656 9.784C86.4596 9.928 86.0966 10 85.6766 10H83.3366V3.727H85.5866C86.0126 3.727 86.3756 3.799 86.6756 3.943C86.9756 4.081 87.2006 4.27 87.3506 4.51C87.5006 4.75 87.5756 5.02 87.5756 5.32C87.5756 5.692 87.4736 6.001 87.2696 6.247C87.0716 6.487 86.8076 6.661 86.4776 6.769ZM84.1556 6.436H85.5326C85.9166 6.436 86.2136 6.346 86.4236 6.166C86.6336 5.986 86.7386 5.737 86.7386 5.419C86.7386 5.101 86.6336 4.852 86.4236 4.672C86.2136 4.492 85.9106 4.402 85.5146 4.402H84.1556V6.436ZM85.6046 9.325C86.0126 9.325 86.3306 9.229 86.5586 9.037C86.7866 8.845 86.9006 8.578 86.9006 8.236C86.9006 7.888 86.7806 7.615 86.5406 7.417C86.3006 7.213 85.9796 7.111 85.5776 7.111H84.1556V9.325H85.6046ZM93.3481 3.727L91.3051 7.633V10H90.4861V7.633L88.4341 3.727H89.3431L90.8911 6.904L92.4391 3.727H93.3481Z" fill="#202029"/>
<path d="M39.1592 14.624V23H37.4792V17.552L35.2352 23H33.9632L31.7072 17.552V23H30.0272V14.624H31.9352L34.5992 20.852L37.2632 14.624H39.1592ZM47.1962 16.352V23H45.5042V22.16C45.2882 22.448 45.0042 22.676 44.6522 22.844C44.3082 23.004 43.9322 23.084 43.5242 23.084C43.0042 23.084 42.5442 22.976 42.1442 22.76C41.7442 22.536 41.4282 22.212 41.1962 21.788C40.9722 21.356 40.8602 20.844 40.8602 20.252V16.352H42.5402V20.012C42.5402 20.54 42.6722 20.948 42.9362 21.236C43.2002 21.516 43.5602 21.656 44.0162 21.656C44.4802 21.656 44.8442 21.516 45.1082 21.236C45.3722 20.948 45.5042 20.54 45.5042 20.012V16.352H47.1962ZM50.6338 14.12V23H48.9538V14.12H50.6338ZM54.0736 17.324C54.2896 17.004 54.5856 16.744 54.9616 16.544C55.3456 16.344 55.7816 16.244 56.2696 16.244C56.8376 16.244 57.3496 16.384 57.8056 16.664C58.2696 16.944 58.6336 17.344 58.8976 17.864C59.1696 18.376 59.3056 18.972 59.3056 19.652C59.3056 20.332 59.1696 20.936 58.8976 21.464C58.6336 21.984 58.2696 22.388 57.8056 22.676C57.3496 22.964 56.8376 23.108 56.2696 23.108C55.7736 23.108 55.3376 23.012 54.9616 22.82C54.5936 22.62 54.2976 22.364 54.0736 22.052V23H52.3936V14.12H54.0736V17.324ZM57.5896 19.652C57.5896 19.252 57.5056 18.908 57.3376 18.62C57.1776 18.324 56.9616 18.1 56.6896 17.948C56.4256 17.796 56.1376 17.72 55.8256 17.72C55.5216 17.72 55.2336 17.8 54.9616 17.96C54.6976 18.112 54.4816 18.336 54.3136 18.632C54.1536 18.928 54.0736 19.276 54.0736 19.676C54.0736 20.076 54.1536 20.424 54.3136 20.72C54.4816 21.016 54.6976 21.244 54.9616 21.404C55.2336 21.556 55.5216 21.632 55.8256 21.632C56.1376 21.632 56.4256 21.552 56.6896 21.392C56.9616 21.232 57.1776 21.004 57.3376 20.708C57.5056 20.412 57.5896 20.06 57.5896 19.652ZM66.8064 19.532C66.8064 19.772 66.7904 19.988 66.7584 20.18H61.8984C61.9384 20.66 62.1064 21.036 62.4024 21.308C62.6984 21.58 63.0624 21.716 63.4944 21.716C64.1184 21.716 64.5624 21.448 64.8264 20.912H66.6384C66.4464 21.552 66.0784 22.08 65.5344 22.496C64.9904 22.904 64.3224 23.108 63.5304 23.108C62.8904 23.108 62.3144 22.968 61.8024 22.688C61.2984 22.4 60.9024 21.996 60.6144 21.476C60.3344 20.956 60.1944 20.356 60.1944 19.676C60.1944 18.988 60.3344 18.384 60.6144 17.864C60.8944 17.344 61.2864 16.944 61.7904 16.664C62.2944 16.384 62.8744 16.244 63.5304 16.244C64.1624 16.244 64.7264 16.38 65.2224 16.652C65.7264 16.924 66.1144 17.312 66.3864 17.816C66.6664 18.312 66.8064 18.884 66.8064 19.532ZM65.0664 19.052C65.0584 18.62 64.9024 18.276 64.5984 18.02C64.2944 17.756 63.9224 17.624 63.4824 17.624C63.0664 17.624 62.7144 17.752 62.4264 18.008C62.1464 18.256 61.9744 18.604 61.9104 19.052H65.0664ZM69.8127 17.384C70.0287 17.032 70.3087 16.756 70.6527 16.556C71.0047 16.356 71.4047 16.256 71.8527 16.256V18.02H71.4087C70.8807 18.02 70.4807 18.144 70.2087 18.392C69.9447 18.64 69.8127 19.072 69.8127 19.688V23H68.1327V16.352H69.8127V17.384ZM74.7642 17.384C74.9802 17.032 75.2602 16.756 75.6042 16.556C75.9562 16.356 76.3562 16.256 76.8042 16.256V18.02H76.3602C75.8322 18.02 75.4322 18.144 75.1602 18.392C74.8962 18.64 74.7642 19.072 74.7642 19.688V23H73.0842V16.352H74.7642V17.384ZM84.3958 16.352L80.2798 26.144H78.4918L79.9318 22.832L77.2678 16.352H79.1518L80.8678 20.996L82.6078 16.352H84.3958ZM84.9934 18.8C84.9934 17.976 85.1774 17.24 85.5454 16.592C85.9214 15.936 86.4294 15.428 87.0694 15.068C87.7174 14.7 88.4414 14.516 89.2414 14.516C90.1774 14.516 90.9974 14.756 91.7014 15.236C92.4054 15.716 92.8974 16.38 93.1774 17.228H91.2454C91.0534 16.828 90.7814 16.528 90.4294 16.328C90.0854 16.128 89.6854 16.028 89.2294 16.028C88.7414 16.028 88.3054 16.144 87.9214 16.376C87.5454 16.6 87.2494 16.92 87.0334 17.336C86.8254 17.752 86.7214 18.24 86.7214 18.8C86.7214 19.352 86.8254 19.84 87.0334 20.264C87.2494 20.68 87.5454 21.004 87.9214 21.236C88.3054 21.46 88.7414 21.572 89.2294 21.572C89.6854 21.572 90.0854 21.472 90.4294 21.272C90.7814 21.064 91.0534 20.76 91.2454 20.36H93.1774C92.8974 21.216 92.4054 21.884 91.7014 22.364C91.0054 22.836 90.1854 23.072 89.2414 23.072C88.4414 23.072 87.7174 22.892 87.0694 22.532C86.4294 22.164 85.9214 21.656 85.5454 21.008C85.1774 20.36 84.9934 19.624 84.9934 18.8ZM94.2804 19.652C94.2804 18.98 94.4124 18.384 94.6764 17.864C94.9484 17.344 95.3124 16.944 95.7684 16.664C96.2324 16.384 96.7484 16.244 97.3164 16.244C97.8124 16.244 98.2444 16.344 98.6124 16.544C98.9884 16.744 99.2884 16.996 99.5124 17.3V16.352H101.204V23H99.5124V22.028C99.2964 22.34 98.9964 22.6 98.6124 22.808C98.2364 23.008 97.8004 23.108 97.3044 23.108C96.7444 23.108 96.2324 22.964 95.7684 22.676C95.3124 22.388 94.9484 21.984 94.6764 21.464C94.4124 20.936 94.2804 20.332 94.2804 19.652ZM99.5124 19.676C99.5124 19.268 99.4324 18.92 99.2724 18.632C99.1124 18.336 98.8964 18.112 98.6244 17.96C98.3524 17.8 98.0604 17.72 97.7484 17.72C97.4364 17.72 97.1484 17.796 96.8844 17.948C96.6204 18.1 96.4044 18.324 96.2364 18.62C96.0764 18.908 95.9964 19.252 95.9964 19.652C95.9964 20.052 96.0764 20.404 96.2364 20.708C96.4044 21.004 96.6204 21.232 96.8844 21.392C97.1564 21.552 97.4444 21.632 97.7484 21.632C98.0604 21.632 98.3524 21.556 98.6244 21.404C98.8964 21.244 99.1124 21.02 99.2724 20.732C99.4324 20.436 99.5124 20.084 99.5124 19.676ZM104.625 17.384C104.841 17.032 105.121 16.756 105.465 16.556C105.817 16.356 106.217 16.256 106.665 16.256V18.02H106.221C105.693 18.02 105.293 18.144 105.021 18.392C104.757 18.64 104.625 19.072 104.625 19.688V23H102.945V16.352H104.625V17.384ZM114.077 19.532C114.077 19.772 114.061 19.988 114.029 20.18H109.169C109.209 20.66 109.377 21.036 109.673 21.308C109.969 21.58 110.333 21.716 110.765 21.716C111.389 21.716 111.833 21.448 112.097 20.912H113.909C113.717 21.552 113.349 22.08 112.805 22.496C112.261 22.904 111.593 23.108 110.801 23.108C110.161 23.108 109.585 22.968 109.073 22.688C108.569 22.4 108.173 21.996 107.885 21.476C107.605 20.956 107.465 20.356 107.465 19.676C107.465 18.988 107.605 18.384 107.885 17.864C108.165 17.344 108.557 16.944 109.061 16.664C109.565 16.384 110.145 16.244 110.801 16.244C111.433 16.244 111.997 16.38 112.493 16.652C112.997 16.924 113.385 17.312 113.657 17.816C113.937 18.312 114.077 18.884 114.077 19.532ZM112.337 19.052C112.329 18.62 112.173 18.276 111.869 18.02C111.565 17.756 111.193 17.624 110.753 17.624C110.337 17.624 109.985 17.752 109.697 18.008C109.417 18.256 109.245 18.604 109.181 19.052H112.337Z" fill="#202029"/>
</svg>
